<?xml version="1.0" encoding="UTF-8" standalone="no"?>
<!DOCTYPE svg PUBLIC "-//W3C//DTD SVG 1.1//EN" "http://www.w3.org/Graphics/SVG/1.1/DTD/svg11.dtd">
<svg width="100%" height="100%" viewBox="0 0 1672 941" version="1.1" xmlns="http://www.w3.org/2000/svg" xmlns:xlink="http://www.w3.org/1999/xlink" xml:space="preserve" xmlns:serif="http://www.serif.com/" style="fill-rule:evenodd;clip-rule:evenodd;stroke-linejoin:round;stroke-miterlimit:2;">
    <g transform="matrix(1,0,0,1,-1722,0)">
        <rect id="Artboard2" x="1722" y="0" width="1672" height="941" style="fill:none;"/>
        <clipPath id="_clip1">
            <rect id="Artboard21" serif:id="Artboard2" x="1722" y="0" width="1672" height="941"/>
        </clipPath>
        <g clip-path="url(#_clip1)">
            <g>
                <path d="M2520,941C2520,941 2603.948,814.254 2762,842C2920.052,869.746 2922.458,901.071 2997,893C3071.542,884.929 3144.198,797.153 3180,808.5C3208.624,817.572 3319.697,825.771 3394,757L3394,941L2520,941" style="fill:rgb(250,187,82);"/>
                <g transform="matrix(1,0,0,1,-2,0)">
                    <path d="M2762.144,857.319C2761.818,857.649 2762.181,858.351 2761.856,858.681C2761.789,858.749 2734.31,853.381 2702.71,854.547C2687.798,855.098 2626.353,856.42 2569.061,907.261C2552.613,921.857 2542.628,935.22 2538.931,940.645C2537.958,942.074 2538.014,942.115 2537.897,942.21C2537.453,942.569 2537.052,943.066 2536.495,943.192C2536.479,943.196 2534.795,942.904 2534.79,942.897C2534.461,942.431 2533.934,942.052 2533.808,941.495C2533.563,940.409 2533.717,940.382 2534.324,939.445C2540.016,930.656 2593.844,853.65 2701.04,850.102C2718.808,849.513 2735.544,852.053 2738.514,852.503C2749.409,854.156 2757.963,856.255 2762.144,857.319Z" style="fill:white;fill-opacity:0.34;"/>
                </g>
                <g transform="matrix(-0.975265,-0.22104,0.22104,-0.975265,5394.289113,2330.506514)">
                    <path d="M2721.834,847.542L2721.864,848.934C2717.943,849.222 2694.309,850.678 2665.439,857.873C2588.959,876.933 2548.89,926.883 2539.899,939.319C2539.747,939.529 2538.794,940.846 2538.046,941.981C2537.005,943.561 2536.655,943.237 2534.79,942.897C2534.781,942.896 2533.807,941.492 2533.804,941.476C2533.576,940.427 2533.702,940.396 2534.29,939.502C2538.337,933.361 2581.071,872.098 2670.047,852.159C2682.25,849.424 2694.817,848.366 2696.988,848.183C2708.899,847.18 2719.847,847.486 2721.834,847.542Z" style="fill:white;fill-opacity:0.19;"/>
                </g>
                <g transform="matrix(1,0,0,1,3,-3)">
                    <path d="M2665.817,892.194C2665.817,889.327 2667.467,887 2669.5,887C2671.533,887 2673.183,889.327 2673.183,892.194C2676.946,892.194 2680,893.451 2680,895C2680,896.549 2676.946,897.806 2673.183,897.806C2673.183,900.673 2671.533,903 2669.5,903C2667.467,903 2665.817,900.673 2665.817,897.806C2662.054,897.806 2659,896.549 2659,895C2659,893.451 2662.054,892.194 2665.817,892.194Z" style="fill:white;fill-opacity:0.49;"/>
                </g>
                <g transform="matrix(1,0,0,1,38,-15.392493)">
                    <path d="M2667.655,893.594C2667.655,889.955 2668.481,887 2669.5,887C2670.519,887 2671.345,889.955 2671.345,893.594C2676.122,893.594 2680,894.224 2680,895C2680,895.776 2676.122,896.406 2671.345,896.406C2671.345,900.045 2670.519,903 2669.5,903C2668.481,903 2667.655,900.045 2667.655,896.406C2662.878,896.406 2659,895.776 2659,895C2659,894.224 2662.878,893.594 2667.655,893.594Z" style="fill:white;fill-opacity:0.44;"/>
                </g>
                <g transform="matrix(1,0,0,1,387,21.990004)">
                    <path d="M2667.655,893.594C2667.655,889.955 2668.481,887 2669.5,887C2670.519,887 2671.345,889.955 2671.345,893.594C2676.122,893.594 2680,894.224 2680,895C2680,895.776 2676.122,896.406 2671.345,896.406C2671.345,900.045 2670.519,903 2669.5,903C2668.481,903 2667.655,900.045 2667.655,896.406C2662.878,896.406 2659,895.776 2659,895C2659,894.224 2662.878,893.594 2667.655,893.594Z" style="fill:white;fill-opacity:0.41;"/>
                </g>
                <g transform="matrix(1,0,0,1,440,-6.387495)">
                    <path d="M2667.655,893.594C2667.655,889.955 2668.481,887 2669.5,887C2670.519,887 2671.345,889.955 2671.345,893.594C2676.122,893.594 2680,894.224 2680,895C2680,895.776 2676.122,896.406 2671.345,896.406C2671.345,900.045 2670.519,903 2669.5,903C2668.481,903 2667.655,900.045 2667.655,896.406C2662.878,896.406 2659,895.776 2659,895C2659,894.224 2662.878,893.594 2667.655,893.594Z" style="fill:white;fill-opacity:0.37;"/>
                </g>
                <g transform="matrix(1,0,0,1,0,-3.387495)">
                    <path d="M3082.495,900L3086.99,904.495L3082.495,908.99L3078,904.495L3082.495,900Z" style="fill:white;fill-opacity:0.49;"/>
                </g>
                <g transform="matrix(1,0,0,1,-4.495002,23.612505)">
                    <path d="M3082.495,900L3086.99,904.495L3082.495,908.99L3078,904.495L3082.495,900Z" style="fill:white;fill-opacity:0.62;"/>
                </g>
                <g transform="matrix(1,0,0,1,27.004998,12.495002)">
                    <path d="M3082.495,900L3086.99,904.495L3082.495,908.99L3078,904.495L3082.495,900Z" style="fill:white;fill-opacity:0.62;"/>
                </g>
            </g>
            <g transform="matrix(-0.723684,0,0,0.723684,4178.184211,260.013158)">
                <path d="M2520,941C2520,941 2603.948,814.254 2762,842C2920.052,869.746 2932.13,884.212 3006.673,876.142C3081.215,868.071 3094.452,830.211 3130.255,820.83C3136.495,819.195 3196.104,812.358 3208.682,813.471C3254.651,817.542 3335.66,734.997 3394,681L3394,941L2520,941" style="fill:rgb(93,172,168);"/>
                <g transform="matrix(1,0,0,1,-2,0)">
                    <path d="M2762.199,857.059C2740.315,851.166 2721.569,848.983 2702.57,849.206C2692.119,849.328 2681.112,850.775 2679.257,851.019C2580.277,864.031 2533.373,939.314 2533.364,939.352C2533.185,940.119 2532.797,940.915 2532.971,941.684C2532.976,941.707 2534.339,943.634 2534.352,943.636C2535.128,943.771 2535.915,944.203 2536.684,944.029C2538.297,943.665 2538.156,943.359 2539.069,941.981C2544.122,934.354 2591.547,866.336 2685.749,856.515C2687.715,856.31 2697.256,855.315 2710.422,855.217C2728.8,855.08 2744.49,856.367 2761.562,858.906C2762.749,859.083 2761.808,858.191 2762.199,857.059Z" style="fill:white;fill-opacity:0.34;"/>
                </g>
                <g transform="matrix(-0.975265,-0.22104,0.22104,-0.975265,5394.289113,2330.506514)">
                    <path d="M2721.829,847.276C2703.953,846.529 2688.925,847.502 2671.148,851.042C2663.981,852.47 2655.08,855.113 2653.698,855.523C2584.798,875.982 2546.91,920.623 2535.872,935.743C2534.285,937.918 2533.371,939.338 2533.37,939.342C2533.232,940.118 2532.798,940.904 2532.969,941.673C2532.974,941.696 2534.33,943.628 2534.342,943.63C2535.116,943.766 2535.9,944.198 2536.667,944.027C2538.185,943.69 2538.098,943.45 2538.96,942.158C2545.762,931.969 2556.471,921.119 2558.143,919.425C2597.483,879.568 2642.455,865.589 2650.834,862.912C2653.542,862.047 2665.537,858.214 2685.329,854.363C2704.667,850.6 2721.065,849.277 2721.869,849.2L2721.829,847.276Z" style="fill:white;fill-opacity:0.19;"/>
                </g>
                <g transform="matrix(1,0,0,1,3,-3)">
                    <path d="M2665.817,892.194C2665.817,889.327 2667.467,887 2669.5,887C2671.533,887 2673.183,889.327 2673.183,892.194C2676.946,892.194 2680,893.451 2680,895C2680,896.549 2676.946,897.806 2673.183,897.806C2673.183,900.673 2671.533,903 2669.5,903C2667.467,903 2665.817,900.673 2665.817,897.806C2662.054,897.806 2659,896.549 2659,895C2659,893.451 2662.054,892.194 2665.817,892.194Z" style="fill:white;fill-opacity:0.49;"/>
                </g>
                <g transform="matrix(1,0,0,1,38,-15.392493)">
                    <path d="M2667.655,893.594C2667.655,889.955 2668.481,887 2669.5,887C2670.519,887 2671.345,889.955 2671.345,893.594C2676.122,893.594 2680,894.224 2680,895C2680,895.776 2676.122,896.406 2671.345,896.406C2671.345,900.045 2670.519,903 2669.5,903C2668.481,903 2667.655,900.045 2667.655,896.406C2662.878,896.406 2659,895.776 2659,895C2659,894.224 2662.878,893.594 2667.655,893.594Z" style="fill:white;fill-opacity:0.44;"/>
                </g>
                <g transform="matrix(1,0,0,1,387,21.990004)">
                    <path d="M2667.655,893.594C2667.655,889.955 2668.481,887 2669.5,887C2670.519,887 2671.345,889.955 2671.345,893.594C2676.122,893.594 2680,894.224 2680,895C2680,895.776 2676.122,896.406 2671.345,896.406C2671.345,900.045 2670.519,903 2669.5,903C2668.481,903 2667.655,900.045 2667.655,896.406C2662.878,896.406 2659,895.776 2659,895C2659,894.224 2662.878,893.594 2667.655,893.594Z" style="fill:white;fill-opacity:0.41;"/>
                </g>
                <g transform="matrix(1,0,0,1,440,-6.387495)">
                    <path d="M2667.655,893.594C2667.655,889.955 2668.481,887 2669.5,887C2670.519,887 2671.345,889.955 2671.345,893.594C2676.122,893.594 2680,894.224 2680,895C2680,895.776 2676.122,896.406 2671.345,896.406C2671.345,900.045 2670.519,903 2669.5,903C2668.481,903 2667.655,900.045 2667.655,896.406C2662.878,896.406 2659,895.776 2659,895C2659,894.224 2662.878,893.594 2667.655,893.594Z" style="fill:white;fill-opacity:0.37;"/>
                </g>
                <g transform="matrix(1,0,0,1,0,-3.387495)">
                    <path d="M3082.495,900L3086.99,904.495L3082.495,908.99L3078,904.495L3082.495,900Z" style="fill:white;fill-opacity:0.49;"/>
                </g>
                <g transform="matrix(1,0,0,1,-4.495002,23.612505)">
                    <path d="M3082.495,900L3086.99,904.495L3082.495,908.99L3078,904.495L3082.495,900Z" style="fill:white;fill-opacity:0.62;"/>
                </g>
                <g transform="matrix(1,0,0,1,27.004998,12.495002)">
                    <path d="M3082.495,900L3086.99,904.495L3082.495,908.99L3078,904.495L3082.495,900Z" style="fill:white;fill-opacity:0.62;"/>
                </g>
            </g>
            <g transform="matrix(1,0,0,1,31.015099,-2.923262)">
                <g transform="matrix(0.963133,0.269027,-0.392083,1.403676,399.276232,-1164.475704)">
                    <path d="M3279.247,710C3271.559,741.389 3276.448,783.124 3283.282,815.249L3270,805.337C3260.721,774.263 3259.524,742.575 3270,710C3267.245,698.981 3273.849,705.628 3279.247,710Z" style="fill:rgb(66,128,115);"/>
                </g>
                <g transform="matrix(1.162112,0.181796,-0.181796,1.162112,-342.299633,-763.317162)">
                    <path d="M3219,923.613C3216.825,920.407 3215.213,912.937 3207.415,905.603C3171.982,872.279 3128.742,769.899 3180,800C3208.784,816.903 3222.252,900.247 3227,896.613L3219,923.613" style="fill:rgb(249,186,83);"/>
                    <g transform="matrix(1,0,0,1,-2,0)">
                        <path d="M3178.625,827.859C3178.831,827.811 3179.02,827.705 3179.226,827.657C3179.313,827.636 3180.072,827.974 3180.143,828.006C3180.754,828.277 3184.269,829.751 3189.786,836.971C3191.425,839.116 3195.523,844.497 3203.311,860.043C3214.63,882.634 3224.517,908.569 3224.517,908.573C3224.532,908.895 3224.618,909.246 3224.487,909.54C3224.481,909.553 3223.779,910.215 3223.771,910.215C3223.449,910.207 3223.099,910.316 3222.804,910.184C3222.51,910.053 3222.31,909.757 3222.135,909.485C3222.129,909.475 3221.884,908.812 3220.873,906.242C3211.19,881.606 3203.199,865.54 3201.481,862.086C3200.971,861.062 3195.979,850.795 3189.281,840.201C3183.712,831.395 3180.753,829.315 3179.118,828.491C3179.059,828.461 3178.981,828.457 3178.94,828.406C3178.745,828.156 3178.821,828.111 3178.625,827.859Z" style="fill:white;fill-opacity:0.18;"/>
                    </g>
                </g>
                <g>
                    <path d="M3219,923.613C3216.825,920.407 3215.213,912.937 3207.415,905.603C3171.982,872.279 3122.096,786.56 3180,800C3219.031,809.06 3227,896.613 3227,896.613L3219,923.613" style="fill:rgb(225,111,52);"/>
                    <g transform="matrix(1,0,0,1,-2,0)">
                        <path d="M3178.564,827.84C3178.776,827.783 3178.952,827.623 3179.164,827.566C3179.304,827.528 3180.294,827.983 3180.389,828.026C3185.076,830.179 3190.107,836.9 3192.327,840.127C3202.137,854.383 3216.52,887.17 3224.641,908.267C3225.101,909.464 3224.802,909.538 3223.869,910.418C3223.863,910.425 3222.728,910.396 3222.713,910.389C3222.366,910.235 3222.136,909.883 3221.926,909.567C3221.923,909.563 3221.18,907.606 3219.798,904.14C3213.851,889.213 3202.87,863.307 3192.611,846.111C3189.003,840.064 3183.666,830.833 3179.006,828.516C3178.951,828.488 3178.872,828.487 3178.838,828.435C3178.656,828.157 3178.744,828.115 3178.564,827.84Z" style="fill:white;fill-opacity:0.18;"/>
                    </g>
                </g>
                <g transform="matrix(-0.947997,-0.318279,-0.318279,0.947997,6563.664103,1072.569301)">
                    <path d="M3219,923.613C3216.825,920.407 3215.213,912.937 3207.415,905.603C3171.982,872.279 3122.096,786.56 3180,800C3219.031,809.06 3227,896.613 3227,896.613L3219,923.613" style="fill:rgb(225,111,52);"/>
                    <g transform="matrix(1,0,0,1,-2,0)">
                        <path d="M3178.564,827.84C3178.684,828.023 3178.719,828.252 3178.838,828.435C3178.923,828.565 3181.092,829.025 3185.22,834.565C3186.005,835.618 3188.615,839.121 3193.983,848.454C3206.085,869.497 3218.611,900.955 3221.84,909.343C3222.3,910.537 3222.57,910.393 3223.85,910.426C3223.859,910.426 3224.685,909.647 3224.692,909.632C3224.846,909.285 3224.783,908.869 3224.728,908.494C3224.658,908.025 3204.989,857.623 3191.377,838.79C3190.352,837.371 3184.58,829.276 3179.361,827.625C3179.296,827.604 3179.23,827.548 3179.164,827.566C3178.841,827.653 3178.885,827.754 3178.564,827.84Z" style="fill:white;fill-opacity:0.18;"/>
                    </g>
                </g>
                <g transform="matrix(0.757596,-0.345951,0.345951,0.757596,462.891545,1367.039257)">
                    <path d="M3219,923.613C3216.825,920.407 3215.213,912.937 3207.415,905.603C3171.982,872.279 3122.096,786.56 3180,800C3219.031,809.06 3227,896.613 3227,896.613L3219,923.613" style="fill:rgb(225,111,52);"/>
                    <g transform="matrix(1,0,0,1,-2,0)">
                        <path d="M3178.477,827.808C3178.73,827.733 3178.944,827.554 3179.197,827.479C3179.336,827.437 3180.346,827.885 3180.443,827.928C3181.501,828.397 3187.876,831.392 3196.378,846.002C3210.455,870.191 3225.011,908.389 3225.011,908.391C3224.997,908.846 3225.151,909.341 3224.965,909.757C3224.957,909.775 3223.964,910.709 3223.953,910.709C3223.499,910.696 3223.005,910.848 3222.59,910.662C3222.174,910.476 3221.904,910.049 3221.645,909.674C3221.62,909.638 3208.65,875.521 3195.276,851.36C3194.316,849.626 3189.116,840.476 3185.836,835.798C3184.382,833.724 3181.691,830.018 3178.971,828.605C3178.916,828.577 3178.838,828.575 3178.806,828.522C3178.598,828.187 3178.686,828.146 3178.477,827.808Z" style="fill:white;fill-opacity:0.18;"/>
                    </g>
                </g>
                <g transform="matrix(-0.757596,-0.345951,-0.345951,0.757596,5976.320709,1383.039257)">
                    <path d="M3219,923.613C3216.825,920.407 3215.213,912.937 3207.415,905.603C3171.982,872.279 3122.096,786.56 3180,800C3219.031,809.06 3227,896.613 3227,896.613L3219,923.613" style="fill:rgb(225,111,52);"/>
                    <g transform="matrix(1,0,0,1,-2,0)">
                        <path d="M3178.477,827.808C3178.615,828.031 3178.668,828.299 3178.806,828.522C3178.806,828.523 3179.799,828.957 3181.175,830.197C3182.344,831.252 3185.034,833.498 3193.722,848.604C3203.537,865.67 3213.8,889.9 3219.519,904.251C3220.852,907.596 3221.644,909.673 3221.645,909.674C3221.959,910.004 3222.174,910.476 3222.59,910.662C3222.608,910.67 3223.968,910.707 3223.976,910.7C3224.308,910.388 3224.779,910.173 3224.965,909.757C3225.151,909.341 3225.069,908.843 3225.011,908.391C3225.01,908.39 3209.81,868.495 3195.446,844.42C3191.857,838.404 3185.048,829.239 3179.397,827.535C3179.331,827.515 3179.263,827.459 3179.197,827.479C3178.816,827.592 3178.861,827.694 3178.477,827.808Z" style="fill:white;fill-opacity:0.18;"/>
                    </g>
                </g>
                <g transform="matrix(0.999119,0.041957,-0.042208,1.005091,-15.236253,31.58956)">
                    <path d="M3275.208,709.174C3270.848,741.33 3272.538,773.378 3279.247,805.337L3270,805.337C3264.036,773.011 3268.311,731.154 3274.664,699.958L3275.208,709.174Z" style="fill:rgb(202,98,48);"/>
                </g>
                <g transform="matrix(0.640784,0.100242,-0.100242,0.640784,1289.278954,-151.087227)">
                    <path d="M3219,923.613C3216.825,920.407 3215.213,912.937 3207.415,905.603C3171.982,872.279 3128.742,769.899 3180,800C3208.784,816.903 3222.252,900.247 3227,896.613L3219,923.613" style="fill:rgb(66,128,115);"/>
                    <g transform="matrix(1,0,0,1,-2,0)">
                        <path d="M3178.328,827.754C3178.65,827.648 3178.931,827.436 3179.253,827.33C3179.283,827.32 3180.45,827.65 3181.419,828.178C3190.493,833.119 3198.287,848.249 3200.089,851.586C3213.068,875.619 3225.49,908.208 3225.49,908.212C3225.473,908.797 3225.67,909.432 3225.431,909.966C3225.421,909.99 3224.146,911.188 3224.132,911.188C3223.549,911.172 3222.914,911.367 3222.381,911.128C3221.847,910.889 3221.512,910.333 3221.168,909.859C3221.011,909.644 3221.086,909.611 3219.908,906.623C3214.049,891.754 3202.559,864.372 3191.913,846.528C3188.75,841.226 3183.412,831.352 3179.067,828.848C3178.962,828.788 3178.818,828.771 3178.75,828.671C3178.464,828.247 3178.612,828.175 3178.328,827.754Z" style="fill:white;fill-opacity:0.18;"/>
                    </g>
                </g>
                <g transform="matrix(0.533886,-0.058575,0.058575,0.533886,1477.379699,486.49726)">
                    <path d="M3219,923.613C3216.825,920.407 3215.213,912.937 3207.415,905.603C3171.982,872.279 3122.567,784.672 3180,800C3222.778,811.417 3229.48,897.413 3227,896.613L3219,923.613" style="fill:rgb(66,128,115);"/>
                    <g transform="matrix(1,0,0,1,-2,0)">
                        <path d="M3178.189,827.702C3178.575,827.568 3178.919,827.326 3179.305,827.191C3179.354,827.174 3183.205,827.819 3188.816,833.907C3192.454,837.854 3196.052,842.408 3203.754,857.551C3215.479,880.606 3225.94,908.038 3225.94,908.044C3225.919,908.75 3226.158,909.517 3225.869,910.162C3225.856,910.191 3224.317,911.638 3224.3,911.638C3223.595,911.618 3222.829,911.854 3222.186,911.566C3220.747,910.921 3220.96,910.648 3220.393,909.182C3216.874,900.089 3203.761,867.324 3191.501,846.774C3188.313,841.431 3183.181,831.569 3179.005,828.993C3178.904,828.931 3178.762,828.911 3178.698,828.81C3178.369,828.289 3178.516,828.22 3178.189,827.702Z" style="fill:white;fill-opacity:0.18;"/>
                    </g>
                </g>
                <g transform="matrix(-0.402167,-0.355988,-0.355988,0.402167,4868.55963,1579.815872)">
                    <path d="M3219,923.613C3216.825,920.407 3215.213,912.937 3207.415,905.603C3171.982,872.279 3122.567,784.672 3180,800C3222.778,811.417 3229.48,897.413 3227,896.613L3219,923.613" style="fill:rgb(66,128,115);"/>
                    <g transform="matrix(1,0,0,1,-2,0)">
                        <path d="M3178.189,827.702C3178.406,828.046 3178.481,828.466 3178.698,828.81C3178.769,828.922 3181.289,829.62 3186.565,838.36C3196.807,855.326 3201.433,865.355 3203.638,870.02C3210.796,885.17 3217.362,901.309 3220.715,910.018C3221.118,911.067 3221.158,911.105 3222.186,911.566C3222.214,911.578 3224.323,911.636 3224.335,911.624C3224.85,911.14 3225.58,910.807 3225.869,910.162C3226.519,908.711 3226.175,908.649 3225.602,907.167C3216.131,882.69 3201.342,850.057 3192.86,838.799C3192.654,838.525 3185.903,829.078 3179.733,827.301C3179.725,827.298 3179.322,827.185 3179.305,827.191C3178.919,827.326 3178.575,827.568 3178.189,827.702Z" style="fill:white;fill-opacity:0.18;"/>
                    </g>
                </g>
                <g transform="matrix(-0.41266,-0.249873,-0.249873,0.41266,4819.879536,1183.102035)">
                    <path d="M3219,923.613C3216.825,920.407 3215.213,912.937 3207.415,905.603C3171.982,872.279 3122.567,784.672 3180,800C3222.778,811.417 3229.48,897.413 3227,896.613L3219,923.613" style="fill:rgb(66,128,115);"/>
                    <g transform="matrix(1,0,0,1,-2,0)">
                        <path d="M3178.097,827.669C3178.332,828.055 3178.429,828.516 3178.664,828.902C3178.825,829.166 3181.183,829.22 3188.288,841.825C3191.574,847.655 3200.039,860.598 3214.572,895.57C3217.848,903.452 3219.968,908.96 3220.419,910.131C3220.869,911.299 3220.913,911.341 3222.057,911.854C3222.089,911.868 3224.436,911.932 3224.45,911.919C3225.023,911.381 3225.836,911.009 3226.157,910.291C3226.861,908.72 3226.515,908.65 3225.897,907.053C3216.374,882.441 3201.47,849.585 3193.105,838.637C3192.089,837.307 3185.72,828.736 3179.552,827.147C3179.482,827.129 3179.408,827.075 3179.34,827.1C3178.693,827.332 3178.744,827.437 3178.097,827.669Z" style="fill:white;fill-opacity:0.18;"/>
                    </g>
                </g>
                <g transform="matrix(-0.477787,0.066667,0.066667,0.477787,4752.905824,63.426374)">
                    <path d="M3219,923.613C3216.825,920.407 3222.302,918.578 3212.073,915.417C3160.582,899.507 3116.699,791.036 3180,800C3223.838,806.208 3229.48,897.413 3227,896.613L3219,923.613" style="fill:rgb(66,128,115);"/>
                    <g transform="matrix(1,0,0,1,-2,0)">
                        <path d="M3178.097,827.669C3178.332,828.055 3178.429,828.516 3178.664,828.902C3178.825,829.166 3181.183,829.22 3188.288,841.825C3191.574,847.655 3200.039,860.598 3214.572,895.57C3217.848,903.452 3219.968,908.96 3220.419,910.131C3220.869,911.299 3220.913,911.341 3222.057,911.854C3222.089,911.868 3224.436,911.932 3224.45,911.919C3225.023,911.381 3225.836,911.009 3226.157,910.291C3226.861,908.72 3226.515,908.65 3225.897,907.053C3216.374,882.441 3201.47,849.585 3193.105,838.637C3192.089,837.307 3185.72,828.736 3179.552,827.147C3179.482,827.129 3179.408,827.075 3179.34,827.1C3178.693,827.332 3178.744,827.437 3178.097,827.669Z" style="fill:white;fill-opacity:0.18;"/>
                    </g>
                </g>
            </g>
            <g transform="matrix(1,0,0,1,107.015099,204.076738)">
                <g transform="matrix(0.963133,0.269027,-0.392083,1.403676,399.276232,-1164.475704)">
                    <path d="M3279.247,710C3271.559,741.389 3276.448,783.124 3283.282,815.249L3270,805.337C3260.721,774.263 3259.524,742.575 3270,710C3267.245,698.981 3273.849,705.628 3279.247,710Z" style="fill:rgb(66,128,115);"/>
                </g>
                <g transform="matrix(1.162112,0.181796,-0.181796,1.162112,-342.299633,-763.317162)">
                    <path d="M3219,923.613C3216.825,920.407 3215.213,912.937 3207.415,905.603C3171.982,872.279 3128.742,769.899 3180,800C3208.784,816.903 3222.252,900.247 3227,896.613L3219,923.613" style="fill:rgb(249,186,83);"/>
                </g>
                <g transform="matrix(0.640784,0.100242,-0.100242,0.640784,1289.278954,-151.087227)">
                    <path d="M3219,923.613C3216.825,920.407 3215.213,912.937 3207.415,905.603C3171.982,872.279 3128.742,769.899 3180,800C3208.784,816.903 3222.252,900.247 3227,896.613L3219,923.613" style="fill:rgb(66,128,115);"/>
                    <g transform="matrix(1,0,0,1,-2,0)">
                        <path d="M3178.328,827.754C3178.65,827.648 3178.931,827.436 3179.253,827.33C3179.283,827.32 3180.45,827.65 3181.419,828.178C3190.493,833.119 3198.287,848.249 3200.089,851.586C3213.068,875.619 3225.49,908.208 3225.49,908.212C3225.473,908.797 3225.67,909.432 3225.431,909.966C3225.421,909.99 3224.146,911.188 3224.132,911.188C3223.549,911.172 3222.914,911.367 3222.381,911.128C3221.847,910.889 3221.512,910.333 3221.168,909.859C3221.011,909.644 3221.086,909.611 3219.908,906.623C3214.049,891.754 3202.559,864.372 3191.913,846.528C3188.75,841.226 3183.412,831.352 3179.067,828.848C3178.962,828.788 3178.818,828.771 3178.75,828.671C3178.464,828.247 3178.612,828.175 3178.328,827.754Z" style="fill:white;fill-opacity:0.18;"/>
                    </g>
                </g>
                <g transform="matrix(0.533886,-0.058575,0.058575,0.533886,1477.379699,486.49726)">
                    <path d="M3219,923.613C3216.825,920.407 3215.213,912.937 3207.415,905.603C3171.982,872.279 3122.567,784.672 3180,800C3222.778,811.417 3229.48,897.413 3227,896.613L3219,923.613" style="fill:rgb(66,128,115);"/>
                </g>
                <g transform="matrix(-0.41266,-0.249873,-0.249873,0.41266,4819.879536,1183.102035)">
                    <path d="M3219,923.613C3216.825,920.407 3215.213,912.937 3207.415,905.603C3171.982,872.279 3122.567,784.672 3180,800C3222.778,811.417 3229.48,897.413 3227,896.613L3219,923.613" style="fill:rgb(66,128,115);"/>
                    <g transform="matrix(1,0,0,1,-2,0)">
                        <path d="M3178.097,827.669C3178.332,828.055 3178.429,828.516 3178.664,828.902C3178.825,829.166 3181.183,829.22 3188.288,841.825C3191.574,847.655 3200.039,860.598 3214.572,895.57C3217.848,903.452 3219.968,908.96 3220.419,910.131C3220.869,911.299 3220.913,911.341 3222.057,911.854C3222.089,911.868 3224.436,911.932 3224.45,911.919C3225.023,911.381 3225.836,911.009 3226.157,910.291C3226.861,908.72 3226.515,908.65 3225.897,907.053C3216.374,882.441 3201.47,849.585 3193.105,838.637C3192.089,837.307 3185.72,828.736 3179.552,827.147C3179.482,827.129 3179.408,827.075 3179.34,827.1C3178.693,827.332 3178.744,827.437 3178.097,827.669Z" style="fill:white;fill-opacity:0.18;"/>
                    </g>
                </g>
                <g transform="matrix(-0.477787,0.066667,0.066667,0.477787,4752.905824,63.426374)">
                    <path d="M3219,923.613C3216.825,920.407 3222.302,918.578 3212.073,915.417C3160.582,899.507 3116.699,791.036 3180,800C3223.838,806.208 3229.48,897.413 3227,896.613L3219,923.613" style="fill:rgb(66,128,115);"/>
                    <g transform="matrix(1,0,0,1,-2,0)">
                        <path d="M3178.097,827.669C3178.332,828.055 3178.429,828.516 3178.664,828.902C3178.825,829.166 3181.183,829.22 3188.288,841.825C3191.574,847.655 3200.039,860.598 3214.572,895.57C3217.848,903.452 3219.968,908.96 3220.419,910.131C3220.869,911.299 3220.913,911.341 3222.057,911.854C3222.089,911.868 3224.436,911.932 3224.45,911.919C3225.023,911.381 3225.836,911.009 3226.157,910.291C3226.861,908.72 3226.515,908.65 3225.897,907.053C3216.374,882.441 3201.47,849.585 3193.105,838.637C3192.089,837.307 3185.72,828.736 3179.552,827.147C3179.482,827.129 3179.408,827.075 3179.34,827.1C3178.692,827.332 3178.743,827.437 3178.097,827.669Z" style="fill:white;fill-opacity:0.18;"/>
                    </g>
                </g>
            </g>
            <g transform="matrix(0.540476,-0.163058,0.163058,0.540476,-114.5254,936.994837)">
                <g transform="matrix(1.162112,0.181796,-0.181796,1.162112,-342.299633,-763.317162)">
                    <path d="M3219,923.613C3216.825,920.407 3215.213,912.937 3207.415,905.603C3171.982,872.279 3128.742,769.899 3180,800C3208.784,816.903 3222.252,900.247 3227,896.613L3219,923.613" style="fill:rgb(46,95,75);"/>
                    <g transform="matrix(1,0,0,1,-2,0)">
                        <path d="M3223.323,909.021C3223.323,909.021 3194.633,833.732 3179,828" style="fill:rgb(46,95,75);"/>
                        <path d="M3178.344,827.759C3178.659,827.657 3178.932,827.448 3179.247,827.346C3179.277,827.336 3180.439,827.667 3181.407,828.197C3190.424,833.13 3198.215,848.228 3200.042,851.612C3213.018,875.64 3225.44,908.227 3225.44,908.231C3225.423,908.802 3225.616,909.423 3225.382,909.944C3225.372,909.967 3224.127,911.138 3224.114,911.137C3223.543,911.122 3222.924,911.313 3222.403,911.079C3221.881,910.845 3221.553,910.303 3221.218,909.84C3221.196,909.81 3208.229,875.705 3194.876,851.582C3194.388,850.701 3192.535,847.354 3188.538,840.702C3183.269,831.935 3180.615,829.684 3178.916,828.741C3178.863,828.712 3178.787,828.707 3178.756,828.655C3178.506,828.226 3178.593,828.188 3178.344,827.759Z" style="fill:white;fill-opacity:0.18;"/>
                    </g>
                </g>
                <g>
                    <path d="M3219,923.613C3216.825,920.407 3215.213,912.937 3207.415,905.603C3171.982,872.279 3122.096,786.56 3180,800C3219.031,809.06 3227,896.613 3227,896.613L3219,923.613" style="fill:rgb(61,115,103);"/>
                    <g transform="matrix(1,0,0,1,-2,0)">
                        <path d="M3178.228,827.717C3178.596,827.591 3178.922,827.357 3179.29,827.231C3179.325,827.219 3183.125,827.84 3188.734,833.972C3192.318,837.89 3195.953,842.513 3203.633,857.612C3215.355,880.661 3225.813,908.086 3225.813,908.092C3225.793,908.763 3226.02,909.493 3225.745,910.107C3225.733,910.134 3224.269,911.511 3224.253,911.51C3223.582,911.492 3222.853,911.716 3222.241,911.442C3220.651,910.73 3221.126,910.223 3215.577,896.814C3200.816,861.145 3192.539,848.345 3188.638,841.593C3181.446,829.145 3178.882,829.033 3178.713,828.771C3178.504,828.445 3178.437,828.042 3178.228,827.717Z" style="fill:white;fill-opacity:0.18;"/>
                    </g>
                </g>
                <g transform="matrix(-0.947997,-0.318279,-0.318279,0.947997,6563.664103,1072.569301)">
                    <path d="M3219,923.613C3216.825,920.407 3215.213,912.937 3207.415,905.603C3171.982,872.279 3122.096,786.56 3180,800C3219.031,809.06 3227,896.613 3227,896.613L3219,923.613" style="fill:rgb(61,115,103);"/>
                    <g transform="matrix(1,0,0,1,-2,0)">
                        <path d="M3178.228,827.717C3178.437,828.042 3178.504,828.445 3178.713,828.771C3178.952,829.143 3181.159,829.171 3187.04,838.929C3194.984,852.11 3199.962,861.347 3207.683,878.479C3212.254,888.623 3217.305,900.783 3220.841,909.97C3221.226,910.968 3221.264,911.004 3222.241,911.442C3222.268,911.454 3224.274,911.509 3224.286,911.498C3224.775,911.037 3225.47,910.72 3225.745,910.107C3226.372,908.707 3226.03,908.648 3225.475,907.216C3216.037,882.825 3201.297,850.275 3192.755,838.868C3192.718,838.819 3185.702,828.903 3179.498,827.281C3179.429,827.263 3179.358,827.207 3179.29,827.231C3178.734,827.421 3178.783,827.526 3178.228,827.717Z" style="fill:white;fill-opacity:0.18;"/>
                    </g>
                </g>
                <g transform="matrix(0.757596,-0.345951,0.345951,0.757596,462.891545,1367.039257)">
                    <path d="M3219,923.613C3216.825,920.407 3215.213,912.937 3207.415,905.603C3171.982,872.279 3122.096,786.56 3180,800C3219.031,809.06 3227,896.613 3227,896.613L3219,923.613" style="fill:rgb(61,115,103);"/>
                    <g transform="matrix(1,0,0,1,-2,0)">
                        <path d="M3178.073,827.66C3178.513,827.501 3178.909,827.235 3179.349,827.076C3179.369,827.069 3184.568,827.727 3192.141,837.278C3192.147,837.285 3196.971,842.198 3208.169,865.617C3218.112,886.41 3226.312,907.895 3226.312,907.905C3226.289,908.712 3226.561,909.588 3226.231,910.324C3226.216,910.357 3224.458,912.011 3224.439,912.01C3223.634,911.988 3222.759,912.257 3222.024,911.928C3220.445,911.22 3220.648,910.944 3220.022,909.325C3216.395,899.955 3203.34,867.394 3191.159,846.977C3187.762,841.284 3183.078,831.882 3178.953,829.114C3178.856,829.049 3178.716,829.026 3178.655,828.925C3178.292,828.325 3178.435,828.259 3178.073,827.66Z" style="fill:white;fill-opacity:0.18;"/>
                    </g>
                </g>
                <g transform="matrix(-0.757596,-0.345951,-0.345951,0.757596,5976.320709,1383.039257)">
                    <path d="M3219,923.613C3216.825,920.407 3215.213,912.937 3207.415,905.603C3171.982,872.279 3122.096,786.56 3180,800C3219.031,809.06 3227,896.613 3227,896.613L3219,923.613" style="fill:rgb(61,115,103);"/>
                    <g transform="matrix(1,0,0,1,-2,0)">
                        <path d="M3178.073,827.66C3178.313,828.057 3178.415,828.528 3178.655,828.925C3178.753,829.087 3181.167,829.405 3187.834,841.176C3192.104,848.713 3199.721,860.484 3213.252,892.622C3214.275,895.053 3217.437,902.61 3220.343,910.16C3220.805,911.359 3220.85,911.402 3222.024,911.928C3222.056,911.942 3224.465,912.008 3224.479,911.995C3225.067,911.442 3225.901,911.061 3226.231,910.324C3226.945,908.732 3226.606,908.659 3225.973,907.023C3216.44,882.386 3201.506,849.47 3193.168,838.595C3192.211,837.347 3185.783,828.704 3179.562,827.123C3179.491,827.105 3179.417,827.051 3179.349,827.076C3178.686,827.315 3178.737,827.42 3178.073,827.66Z" style="fill:white;fill-opacity:0.18;"/>
                    </g>
                </g>
                <g transform="matrix(0.999119,0.041957,-0.042208,1.005091,-15.236253,31.58956)">
                    <path d="M3275.208,709.174C3270.848,741.33 3272.538,773.378 3279.247,805.337L3270,805.337C3264.036,773.011 3268.311,731.154 3274.664,699.958L3275.208,709.174Z" style="fill:rgb(61,115,103);"/>
                </g>
            </g>
            <g transform="matrix(1,0,0,1,-509.490308,38.231914)">
                <g transform="matrix(1.222222,0,0,1,-560,0)">
                    <ellipse cx="2511" cy="772" rx="9" ry="15" style="fill:rgb(242,231,216);fill-opacity:0.49;"/>
                </g>
                <g transform="matrix(1.507214,0.384783,-0.288587,1.130411,-1021.065203,-1078.366426)">
                    <ellipse cx="2511" cy="772" rx="9" ry="15" style="fill:rgb(242,230,214);fill-opacity:0.49;"/>
                </g>
                <g transform="matrix(1.363779,0.748239,-0.561179,1.022834,-418.334885,-1894.69946)">
                    <ellipse cx="2511" cy="772" rx="9" ry="15" style="fill:rgb(242,231,215);fill-opacity:0.49;"/>
                </g>
                <g transform="matrix(1.029741,0.876512,-0.663328,0.779289,510.291368,-1992.444094)">
                    <ellipse cx="2511" cy="772" rx="9" ry="15" style="fill:rgb(242,230,214);fill-opacity:0.49;"/>
                </g>
                <path d="M2516,829C2494.575,822.78 2494.902,806.272 2509,800C2515.365,798.247 2520.446,796.055 2523,793C2548.777,779.84 2556.123,790.401 2558,808C2557.031,813.612 2558.044,817.937 2561,821C2566.644,845.852 2554.704,847.267 2537,841C2532.914,834.423 2525.396,830.997 2516,829" style="fill:rgb(229,207,176);"/>
            </g>
            <g transform="matrix(1,0,0,1,-691.490308,-30.136841)">
                <g transform="matrix(1.222222,0,0,1,-560,0)">
                    <ellipse cx="2511" cy="772" rx="9" ry="15" style="fill:rgb(242,231,216);fill-opacity:0.49;"/>
                </g>
                <g transform="matrix(1.507214,0.384783,-0.288587,1.130411,-1021.065203,-1078.366426)">
                    <ellipse cx="2511" cy="772" rx="9" ry="15" style="fill:rgb(242,230,214);fill-opacity:0.49;"/>
                </g>
                <g transform="matrix(1.363779,0.748239,-0.561179,1.022834,-418.334885,-1894.69946)">
                    <ellipse cx="2511" cy="772" rx="9" ry="15" style="fill:rgb(242,231,215);fill-opacity:0.49;"/>
                </g>
                <g transform="matrix(1.029741,0.876512,-0.663328,0.779289,510.291368,-1992.444094)">
                    <ellipse cx="2511" cy="772" rx="9" ry="15" style="fill:rgb(242,230,214);fill-opacity:0.49;"/>
                </g>
                <path d="M2516,829C2494.575,822.78 2494.902,806.272 2509,800C2515.365,798.247 2520.446,796.055 2523,793C2548.777,779.84 2556.123,790.401 2558,808C2557.031,813.612 2558.044,817.937 2561,821C2566.644,845.852 2554.704,847.267 2537,841C2532.914,834.423 2525.396,830.997 2516,829" style="fill:rgb(229,207,176);"/>
            </g>
        </g>
    </g>
</svg>
